<?xml version="1.0" encoding="UTF-8" standalone="no"?>
<!-- Generator: Gravit.io -->

<svg
   xmlns:dc="http://purl.org/dc/elements/1.1/"
   xmlns:cc="http://creativecommons.org/ns#"
   xmlns:rdf="http://www.w3.org/1999/02/22-rdf-syntax-ns#"
   xmlns:svg="http://www.w3.org/2000/svg"
   xmlns="http://www.w3.org/2000/svg"
   xmlns:xlink="http://www.w3.org/1999/xlink"
   xmlns:sodipodi="http://sodipodi.sourceforge.net/DTD/sodipodi-0.dtd"
   xmlns:inkscape="http://www.inkscape.org/namespaces/inkscape"
   style="isolation: isolate"
   viewBox="0 0 1920 1080"
   width="1920pt"
   height="1080pt"
   version="1.1"
   id="svg17"
   sodipodi:docname="layan-dark.svg"
   inkscape:version="0.92.4 5da689c313, 2019-01-14"
   inkscape:export-filename="/home/vince/桌面/layan-dark.png"
   inkscape:export-xdpi="96"
   inkscape:export-ydpi="96">
  <metadata
     id="metadata21">
    <rdf:RDF>
      <cc:Work
         rdf:about="">
        <dc:format>image/svg+xml</dc:format>
        <dc:type
           rdf:resource="http://purl.org/dc/dcmitype/StillImage" />
      </cc:Work>
    </rdf:RDF>
  </metadata>
  <sodipodi:namedview
     pagecolor="#ffffff"
     bordercolor="#666666"
     borderopacity="1"
     objecttolerance="10"
     gridtolerance="10"
     guidetolerance="10"
     inkscape:pageopacity="0"
     inkscape:pageshadow="2"
     inkscape:window-width="1366"
     inkscape:window-height="708"
     id="namedview19"
     showgrid="false"
     inkscape:zoom="0.46354778"
     inkscape:cx="448.05124"
     inkscape:cy="1196.2705"
     inkscape:window-x="0"
     inkscape:window-y="28"
     inkscape:window-maximized="1"
     inkscape:current-layer="svg17" />
  <defs
     id="defs5">
    <linearGradient
       inkscape:collect="always"
       id="linearGradient835">
      <stop
         style="stop-color: #716ffb; stop-opacity: 1"
         offset="0"
         id="stop831" />
      <stop
         style="stop-color: #4648fb; stop-opacity: 1"
         offset="1"
         id="stop833" />
    </linearGradient>
    <clipPath
       id="_clipPath_JLN7nBUHOKmpGH9EyesXuP1KvCZWHqKV">
      <rect
         width="1920"
         height="1080"
         id="rect2" />
    </clipPath>
    <linearGradient
       inkscape:collect="always"
       xlink:href="#linearGradient835"
       id="linearGradient837"
       x1="1714.4736"
       y1="192.30577"
       x2="1714.4736"
       y2="1195"
       gradientUnits="userSpaceOnUse"
       gradientTransform="scale(1.3333333)" />
    <linearGradient
       inkscape:collect="always"
       xlink:href="#linearGradient835"
       id="linearGradient849"
       x1="250.24144"
       y1="-128"
       x2="250.24144"
       y2="381.03943"
       gradientUnits="userSpaceOnUse"
       gradientTransform="scale(1.3333333)" />
    <linearGradient
       inkscape:collect="always"
       xlink:href="#linearGradient835"
       id="linearGradient857"
       x1="347.18814"
       y1="980.00031"
       x2="347.18814"
       y2="1270.796"
       gradientUnits="userSpaceOnUse"
       gradientTransform="scale(1.3333333)" />
    <filter
       inkscape:collect="always"
       style="color-interpolation-filters:sRGB"
       id="filter918"
       x="-0.1135475"
       width="1.227095"
       y="-0.08315008"
       height="1.1663002">
      <feGaussianBlur
         inkscape:collect="always"
         stdDeviation="41.00657"
         id="feGaussianBlur920" />
    </filter>
    <filter
       inkscape:collect="always"
       style="color-interpolation-filters:sRGB"
       id="filter968"
       x="-0.065211577"
       width="1.1304232"
       y="-0.18186338"
       height="1.3637268">
      <feGaussianBlur
         inkscape:collect="always"
         stdDeviation="10.103496"
         id="feGaussianBlur970" />
    </filter>
    <filter
       inkscape:collect="always"
       style="color-interpolation-filters:sRGB"
       id="filter1006"
       x="-0.080631676"
       width="1.1612634"
       y="-0.11860624"
       height="1.2372125">
      <feGaussianBlur
         inkscape:collect="always"
         stdDeviation="25.107019"
         id="feGaussianBlur1008" />
    </filter>
  </defs>
  <rect
     style="fill: #25252d"
     id="rect7"
     height="1080"
     width="1920"
     y="0"
     x="0" />
  <path
     id="path868"
     transform="scale(0.8)"
     d="M 2436.1 256.4 C 2395 256.6 2351.9 261.8 2306.7 272 C 2100 318.8 1920.6 477.5 1940 665.3 C 1959.4 853.1 2206.7 866.7 2306.7 984 C 2407.2 1102 2377.3 1243.2 2306.7 1293.3 C 2180.9 1382.7 2031.9 1354.9 1988 1265.3 C 1929.3 1145.5 1794.1 1125.8 1725.3 1200 C 1681.8 1247 1683.3 1354.5 1725.3 1416 C 1730.6 1423.6 1738 1431.6 1747.7 1440 L 2560 1440 L 2560 272.9 C 2521 261.7 2479.7 256.2 2436.1 256.4 z"
     style="fill: #000000; stroke-width: 1.3; fill-opacity: 1; filter: url(#filter918); opacity: 0.35" />
  <path
     style="fill: url(#linearGradient837); stroke-width: 1.3; fill-opacity: 1"
     d="M 2436.1 256.4 C 2395 256.6 2351.9 261.8 2306.7 272 C 2100 318.8 1920.6 477.5 1940 665.3 C 1959.4 853.1 2206.7 866.7 2306.7 984 C 2407.2 1102 2377.3 1243.2 2306.7 1293.3 C 2180.9 1382.7 2031.9 1354.9 1988 1265.3 C 1929.3 1145.5 1794.1 1125.8 1725.3 1200 C 1681.8 1247 1683.3 1354.5 1725.3 1416 C 1730.6 1423.6 1738 1431.6 1747.7 1440 L 2560 1440 L 2560 272.9 C 2521 261.7 2479.7 256.2 2436.1 256.4 z"
     transform="scale(0.8)"
     id="path9" />
  <path
     id="path972"
     transform="scale(0.8)"
     d="M 0 0 L 0 484.7 C 50.9 530.2 137.1 507.4 170.7 432 C 213.3 336 197.3 298.7 314.7 272 C 432 245.3 522.7 378.7 624 368 C 725.3 357.3 752 277.3 746.7 144 C 744.1 80.6 721.7 32.6 679.5 0 L 0 0 z"
     style="fill: #000000; stroke-width: 1.3; fill-opacity: 1; filter: url(#filter1006); opacity: 0.35" />
  <path
     style="fill: url(#linearGradient849); stroke-width: 1.3; fill-opacity: 1"
     d="M 0 0 V 484.7 C 50.9 530.2 152.3 512.5 170.7 432 c 21.6 -94.9 43.3 -137.5 144 -160 C 422.4 247.9 522.7 378.7 624 368 C 725.3 357.3 752 277.3 746.7 144 C 744.1 80.6 721.7 32.6 679.5 0 Z"
     transform="scale(0.8)"
     id="path11"
     inkscape:connector-curvature="0"
     sodipodi:nodetypes="ccsssscc" />
  <path
     id="path922"
     transform="scale(0.8)"
     d="M 588.1 1306.7 C 577.3 1306.7 566.5 1307.9 556 1310.4 C 480.5 1328.4 460 1385.1 424.6 1440 L 796.5 1440 C 792.9 1432.5 788.8 1425.3 784 1418.4 C 745.5 1362.4 664.2 1306.4 588.1 1306.7 z"
     style="fill: #000000; stroke-width: 1.3; fill-opacity: 1; filter: url(#filter968); opacity: 0.35" />
  <path
     style="fill: url(#linearGradient857); stroke-width: 1.3; fill-opacity: 1"
     d="M 588.1 1306.7 C 577.3 1306.7 566.5 1307.9 556 1310.4 C 480.5 1328.4 460 1385.1 424.6 1440 L 796.5 1440 C 792.9 1432.5 788.8 1425.3 784 1418.4 C 745.5 1362.4 664.2 1306.4 588.1 1306.7 z"
     transform="scale(0.8)"
     id="path13" />
</svg>
