<svg height="369.97461pt" viewBox="0 0 369.97461 369.97461" width="369.97461pt" xmlns="http://www.w3.org/2000/svg"><path d="m55.273438 283.5 230.046874-230.050781 48.273438 48.273437-230.046875 230.050782c-13.332031 13.328124-34.945313 13.328124-48.273437 0-13.332032-13.332032-13.332032-34.941407 0-48.273438zm0 0" fill="#2a8ee6"/><path d="m79.40625 348.59375c-10.9375 0-21.226562-4.261719-28.957031-11.996094-7.742188-7.738281-12-18.019531-12-28.964844 0-10.9375 4.257812-21.222656 12-28.960937l230.042969-230.046875c2.5625-2.558594 7.09375-2.558594 9.65625 0l48.273437 48.273438c2.664063 2.664062 2.664063 6.988281 0 9.652343l-230.046875 230.046875c-7.742188 7.734375-18.027344 11.996094-28.96875 11.996094zm205.914062-285.488281-225.21875 225.222656c-5.160156 5.160156-8.003906 12.015625-8.003906 19.304687 0 7.292969 2.839844 14.152344 8.003906 19.308594 5.15625 5.15625 12.011719 8 19.304688 8s14.152344-2.839844 19.3125-8l225.21875-225.21875zm-230.046874 220.394531h.066406zm0 0" fill="#0e65e5"/><path d="m339.621094 324.238281-38.910156 38.910157-293.878907-293.882813 38.910157-38.910156c13.164062-13.164063 34.515624-13.164063 47.683593 0l246.195313 246.199219c13.167968 13.164062 13.167968 34.515624 0 47.683593zm0 0" fill="#0e65e5"/><path d="m300.707031 369.976562c-1.746093 0-3.492187-.667968-4.824219-2.003906l-293.882812-293.878906c-1.28125-1.28125-2-3.019531-2-4.828125s.71875-3.546875 2-4.824219l38.914062-38.910156c7.652344-7.660156 17.839844-11.878906 28.667969-11.878906 10.832031 0 21.019531 4.21875 28.671875 11.878906l246.195313 246.195312c7.660156 7.65625 11.871093 17.835938 11.871093 28.671876 0 10.828124-4.210937 21.007812-11.871093 28.664062l-38.914063 38.910156c-1.332031 1.335938-3.082031 2.003906-4.828125 2.003906zm-284.226562-300.710937 284.226562 284.226563 34.089844-34.082032c5.078125-5.082031 7.871094-11.835937 7.871094-19.015625 0-7.183593-2.792969-13.9375-7.871094-19.015625l-246.195313-246.195312c-10.15625-10.160156-27.875-10.164063-38.035156 0zm323.140625 254.972656h.066406zm0 0" fill="#0e65e5"/><path d="m352.902344 34.144531-67.582032 19.304688 48.273438 48.273437zm0 0" fill="#94c1ff"/><path d="m333.59375 108.550781c-1.785156 0-3.53125-.703125-4.828125-2l-48.273437-48.273437c-1.710938-1.710938-2.382813-4.195313-1.777344-6.539063.605468-2.339843 2.40625-4.1875 4.730468-4.851562l67.582032-19.304688c2.367187-.671875 4.945312-.019531 6.699218 1.738281 1.753907 1.75 2.421876 4.316407 1.742188 6.703126l-19.304688 67.578124c-.667968 2.324219-2.515624 4.125-4.855468 4.734376-.566406.144531-1.140625.214843-1.714844.214843zm-35.238281-51.722656 31.859375 31.867187 12.746094-44.613281zm0 0" fill="#0e65e5"/><path d="m79.40625 304.808594c-1.746094 0-3.492188-.667969-4.824219-2-2.667969-2.667969-2.667969-6.988282 0-9.65625l205.910157-205.90625c2.667968-2.667969 6.988281-2.667969 9.65625 0 2.664062 2.664062 2.664062 6.984375 0 9.652344l-205.914063 205.910156c-1.332031 1.332031-3.082031 2-4.828125 2zm0 0" fill="#0e65e5"/><path d="m353.273438 310.585938-38.910157 38.910156-293.878906-293.882813 38.910156-38.910156c13.167969-13.167969 34.515625-13.167969 47.683594 0l246.195313 246.195313c13.171874 13.167968 13.171874 34.515624 0 47.6875zm0 0" fill="#94c1ff"/><g fill="#0e65e5"><path d="m314.359375 356.320312c-1.742187 0-3.492187-.667968-4.824219-2l-293.882812-293.878906c-1.277344-1.28125-2-3.019531-2-4.828125 0-1.808593.722656-3.546875 2-4.828125l38.914062-38.910156c7.652344-7.65625 17.839844-11.875 28.667969-11.875 10.832031 0 21.019531 4.21875 28.671875 11.875l246.195312 246.199219c7.660157 7.65625 11.875 17.835937 11.875 28.667969 0 10.832031-4.214843 21.011718-11.875 28.667968l-38.914062 38.910156c-1.332031 1.332032-3.082031 2-4.828125 2zm-284.226563-300.707031 284.226563 284.226563 34.089844-34.082032c5.078125-5.082031 7.871093-11.835937 7.871093-19.015624 0-7.183594-2.792968-13.9375-7.871093-19.015626l-246.195313-246.195312c-10.152344-10.160156-27.867187-10.167969-38.035156 0zm323.140626 254.972657h.066406zm0 0"/><path d="m61.226562 100.535156c-1.746093 0-3.492187-.667968-4.828124-2-2.664063-2.667968-2.664063-6.988281 0-9.652344l28.960937-28.964843c2.667969-2.667969 6.988281-2.667969 9.652344 0 2.667969 2.664062 2.667969 6.988281 0 9.652343l-28.957031 28.964844c-1.335938 1.332032-3.082032 2-4.828126 2zm0 0"/><path d="m95.011719 134.324219c-1.742188 0-3.492188-.667969-4.824219-2-2.667969-2.667969-2.667969-6.988281 0-9.652344l28.96875-28.964844c2.664062-2.667969 6.984375-2.667969 9.652344 0 2.664062 2.664063 2.664062 6.984375 0 9.652344l-28.96875 28.964844c-1.332032 1.332031-3.078125 2-4.828125 2zm0 0"/><path d="m128.808594 168.113281c-1.746094 0-3.496094-.667969-4.828125-2-2.664063-2.664062-2.664063-6.988281 0-9.652343l28.960937-28.964844c2.664063-2.664063 6.988282-2.664063 9.652344 0 2.667969 2.667968 2.667969 6.988281 0 9.652344l-28.960938 28.964843c-1.332031 1.335938-3.078124 2-4.824218 2zm0 0"/><path d="m162.59375 201.902344c-1.746094 0-3.492188-.664063-4.824219-2-2.667969-2.664063-2.667969-6.984375 0-9.652344l28.964844-28.964844c2.667969-2.664062 6.988281-2.664062 9.652344 0 2.667969 2.667969 2.667969 6.988282 0 9.65625l-28.964844 28.960938c-1.335937 1.335937-3.082031 2-4.828125 2zm0 0"/><path d="m196.386719 235.695312c-1.746094 0-3.492188-.667968-4.824219-2-2.667969-2.667968-2.667969-6.988281 0-9.65625l28.960938-28.960937c2.664062-2.667969 6.984374-2.667969 9.652343 0 2.664063 2.664063 2.664063 6.984375 0 9.652344l-28.960937 28.964843c-1.332032 1.332032-3.082032 2-4.828125 2zm0 0"/><path d="m230.175781 269.484375c-1.746093 0-3.496093-.667969-4.828125-2-2.664062-2.667969-2.664062-6.988281 0-9.652344l28.96875-28.964843c2.664063-2.664063 6.984375-2.664063 9.652344 0 2.664062 2.667968 2.664062 6.988281 0 9.652343l-28.96875 28.964844c-1.332031 1.332031-3.078125 2-4.824219 2zm0 0"/><path d="m263.964844 303.273438c-1.742188 0-3.492188-.667969-4.824219-2-2.667969-2.664063-2.667969-6.984376 0-9.652344l28.960937-28.964844c2.664063-2.664062 6.984376-2.664062 9.652344 0 2.664063 2.667969 2.664063 6.988281 0 9.65625l-28.960937 28.960938c-1.332031 1.332031-3.078125 2-4.828125 2zm0 0"/></g><path d="m88.035156 135.171875c-3.773437 0-6.828125-3.058594-6.828125-6.828125v-27.304688c0-3.769531 3.054688-6.828124 6.828125-6.828124 3.773438 0 6.824219 3.058593 6.824219 6.828124v27.304688c0 3.769531-3.050781 6.828125-6.824219 6.828125zm0 0" fill="#fff"/><path d="m101.6875 121.519531h-27.308594c-3.773437 0-6.824218-3.058593-6.824218-6.828125 0-3.769531 3.050781-6.828125 6.824218-6.828125h27.308594c3.773438 0 6.824219 3.058594 6.824219 6.828125 0 3.769532-3.050781 6.828125-6.824219 6.828125zm0 0" fill="#fff"/><path d="m316.726562 261.464844c-1.746093 0-3.492187-.667969-4.828124-2l-44.371094-44.375c-2.667969-2.664063-2.667969-6.984375 0-9.652344 2.664062-2.664062 6.988281-2.664062 9.652344 0l44.375 44.375c2.664062 2.664062 2.664062 6.984375 0 9.652344-1.335938 1.332031-3.082032 2-4.828126 2zm0 0" fill="#fff"/></svg>